<?xml version="1.0" encoding="utf-8"?>
<!-- Generator: Adobe Illustrator 23.0.6, SVG Export Plug-In . SVG Version: 6.00 Build 0)  -->
<svg version="1.1" id="Layer_1" xmlns="http://www.w3.org/2000/svg" xmlns:xlink="http://www.w3.org/1999/xlink" x="0px" y="0px"
	 viewBox="0 0 250 216" style="enable-background:new 0 0 250 216;" xml:space="preserve">
<style type="text/css">
	.st0{fill:#F4F4F4;}
</style>
<g transform="translate(300,300)">
	
		<image style="overflow:visible;opacity:0.75;" width="243" height="197" xlink:href="923FB4FB5763C0F8.png"  transform="matrix(1 0 0 1 -296 -282)">
	</image>
	<g>
		<g>
			<path class="st0" d="M-102.8-243.6c22,13.8,42,37.8,35.6,55.4c-6.3,17.7-39.1,29-61.1,43.8c-22,14.9-33.3,33.4-52.7,41.5
				c-19.4,8.2-47,6-67.3-8.9c-20.3-14.8-33.3-42.4-36-72.7c-2.7-30.3,4.8-63.3,25.1-77c20.2-13.8,53.3-8.4,81.8-3.9
				C-148.9-260.9-124.8-257.4-102.8-243.6z"/>
		</g>
	</g>
</g>
</svg>
