<?xml version="1.0" encoding="utf-8"?>
<!-- Generator: Adobe Illustrator 24.1.1, SVG Export Plug-In . SVG Version: 6.00 Build 0)  -->
<svg version="1.1" id="b33613f3-47b2-4fb7-9d5b-ca5c70d6619d"
	 xmlns="http://www.w3.org/2000/svg" xmlns:xlink="http://www.w3.org/1999/xlink" x="0px" y="0px" viewBox="0 0 863 722.2"
	 style="enable-background:new 0 0 863 722.2;" xml:space="preserve">
<style type="text/css">
	.st0{fill:#F2F2F2;}
	.st1{fill:#3F3D56;}
	.st2{opacity:0.1;enable-background:new    ;}
	.st3{fill:#2F2E41;}
	.st4{fill:#FFB9B9;}
	.st5{fill:#D0CDE1;}
	.st6{fill:url(#SVGID_1_);}
	.st7{fill:url(#SVGID_2_);}
	.st8{fill:#B3B3B3;}
	.st9{fill:#A6120D;}
	.st10{fill:#DD1B16;}
	.st11{fill:#E34E26;}
	.st12{fill:#EF662A;}
	.st13{fill:#FFFFFF;}
	.st14{fill:#EBEBEB;}
	.st15{fill:#53C1DE;}
	.st16{fill:#2062AF;}
	.st17{fill:#3C9CD7;}
	.st18{fill:url(#SVGID_3_);}
	.st19{fill:url(#SVGID_4_);}
	.st20{fill:url(#SVGID_5_);}
	.st21{opacity:5.000000e-02;enable-background:new    ;}
	.st22{fill:url(#SVGID_6_);}
	.st23{fill:#F0DB4F;}
	.st24{fill:#323330;}
	.st25{fill:#563D7C;}
	.st26{fill-rule:evenodd;clip-rule:evenodd;fill:#8E714E;}
	.st27{fill-rule:evenodd;clip-rule:evenodd;fill:#442D22;}
	.st28{fill-rule:evenodd;clip-rule:evenodd;fill:#FFFFFF;}
	.st29{fill-rule:evenodd;clip-rule:evenodd;fill:#A6A385;}
	.st30{fill-rule:evenodd;clip-rule:evenodd;fill:#499D4A;}
	.st31{fill-rule:evenodd;clip-rule:evenodd;fill:#58AA50;}
	.st32{fill:#D34A47;}
	.st33{fill:#8ED6FB;}
	.st34{fill:#1C78C0;}
	.st35{fill:url(#SVGID_7_);}
	.st36{fill:#31C5F0;}
</style>
<path class="st0" d="M740.1,288C695.2,127.8,540,12.2,357.8,7.6C261.5,5.1,160.1,34,86.4,135.4c-131.9,181.2,8.1,306.4,105.7,365.9
	c47.2,28.8,89.6,63.5,126.2,102.9c65.9,70.9,192.8,159.2,343.8,20.9C771.6,525,770,394.6,740.1,288z"/>
<path class="st1" d="M862,639.2c0,43.4-189.2,124-427.5,124S0,687.6,0,644.2s196.2-38,434.5-38S862,595.9,862,639.2z"/>
<path class="st2" d="M862,639.2c0,43.4-189.2,124-427.5,124S0,687.6,0,644.2s196.2-38,434.5-38S862,595.9,862,639.2z"/>
<ellipse class="st1" cx="431.5" cy="643.7" rx="431.5" ry="78.5"/>
<polygon class="st3" points="594.9,376.7 594.9,586.7 630,643.9 632.6,648.3 771.2,648.3 774,376.7 "/>
<polygon class="st2" points="594.9,376.7 594.9,586.7 630,643.9 632.1,376.7 "/>
<polygon class="st3" points="260.3,371.1 260.3,581.1 225.2,638.3 222.6,642.7 84,642.7 81.2,371.1 "/>
<polygon class="st2" points="260.3,371.1 260.3,581.1 225.2,638.3 223.1,371.1 "/>
<polygon class="st3" points="816,366.9 816,379.5 63,379.5 63,361.3 133,325 754.4,325 "/>
<polygon class="st2" points="816,366.9 816,379.5 63,379.5 63,361.3 "/>
<polygon class="st2" points="170.8,429.9 137.2,429.9 123.2,420.1 186.2,420.1 "/>
<polygon class="st2" points="170.8,470.5 137.2,470.5 123.2,460.7 186.2,460.7 "/>
<polygon class="st2" points="170.8,527.9 137.2,527.9 123.2,518.1 186.2,518.1 "/>
<polygon class="st2" points="170.8,585.3 137.2,585.3 123.2,575.5 186.2,575.5 "/>
<polygon class="st2" points="684.4,435.5 718,435.5 732,425.7 669,425.7 "/>
<polygon class="st2" points="684.4,476.1 718,476.1 732,466.3 669,466.3 "/>
<polygon class="st2" points="684.4,533.5 718,533.5 732,523.7 669,523.7 "/>
<polygon class="st2" points="684.4,590.9 718,590.9 732,581.1 669,581.1 "/>
<path class="st1" d="M532.5,289.9l-4.7,29.8c0,0-23,12.2-6.8,12.6s92.3,0,92.3,0s14.7,0-8.6-12.9l-4.7-31.2L532.5,289.9z"/>
<path class="st2" d="M517.8,332c3.1-2.5,6.5-4.8,10.1-6.7l4.7-29.8l67.5,0.1l4.7,29.4c3.8,2,7.5,4.4,10.8,7.1
	c3-0.7,6.3-3.2-10.8-12.7l-4.7-31.2l-67.5,1.8l-4.7,29.8C527.8,319.7,508.5,330,517.8,332z"/>
<path class="st1" d="M424.5,82.2h282.8c5.9,0,10.7,4.8,10.7,10.7v190.5c0,5.9-4.8,10.7-10.7,10.7H424.5c-5.9,0-10.7-4.8-10.7-10.7
	V92.9C413.8,87,418.6,82.2,424.5,82.2z"/>
<rect x="424.1" y="93.5" class="st0" width="283.7" height="158.7"/>
<circle class="st0" cx="565.9" cy="88.5" r="1.8"/>
<path class="st1" d="M718,264.8v18.6c0,5.9-4.8,10.7-10.7,10.7l0,0H424.5c-5.9,0-10.7-4.8-10.7-10.7l0,0v-18.6H718z"/>
<circle class="st0" cx="565.9" cy="279.5" r="6.8"/>
<polygon class="st1" points="555.3,351.7 555.3,355.3 362.1,355.3 362.1,352.4 362.3,351.7 367.1,338.8 551.3,338.8 "/>
<path class="st1" d="M629.6,348.2c-0.4,1.5-1.7,3.1-4.7,4.6c-10.8,5.4-32.7-1.4-32.7-1.4s-16.9-2.9-16.9-10.4c0.5-0.3,1-0.6,1.5-0.9
	c4.5-2.4,19.5-8.3,46.2,0.3c2,0.6,3.7,1.8,5.1,3.3C629.3,344.8,629.9,346.5,629.6,348.2z"/>
<path class="st2" d="M629.6,348.2c-13.2,5.1-24.9,5.4-37-2.9c-6.1-4.2-11.6-5.3-15.8-5.2c4.5-2.4,19.5-8.3,46.2,0.3
	c2,0.6,3.7,1.8,5.1,3.3C629.3,344.8,629.9,346.5,629.6,348.2z"/>
<ellipse class="st0" cx="613.1" cy="343.8" rx="4.7" ry="1.4"/>
<polygon class="st2" points="555.3,351.7 555.3,355.3 362.1,355.3 362.1,352.4 362.3,351.7 "/>
<circle class="st4" cx="394.6" cy="92.4" r="38.2"/>
<path class="st4" d="M366.5,111.5v60.4h62.4c0,0-8.1-50.3-4-65.4L366.5,111.5z"/>
<path class="st5" d="M490.3,193c0,0-59.4-29.2-59.4-31.2s-6-15.1-10.1-15.1s-38.2-11.1-57.4,5l-2,13.1L288,213.2l20.1,73.5
	c0,0,13.1,14.1,9.1,24.2s3,61.4,3,61.4l158-5v-68.4c0,0,5-16.1,8.1-21.1s0-20.1,0-20.1l24.2-30.2C510.4,227.3,507.4,199.1,490.3,193
	z"/>
<path class="st2" d="M290.5,237.8l4.5-24.7c0,0-26.2,113.7-23.1,126.8s25.2,33.2,28.2,34.2s31.2-86.6,31.2-86.6L290.5,237.8z"/>
<path class="st5" d="M305.1,210.2l-17.1,3c0,0-26.2,113.7-23.1,126.8s25.2,33.2,28.2,34.2s31.2-86.6,31.2-86.6L305.1,210.2z"/>
<path class="st2" d="M495.8,243.9l8.6-16.6c0,0,12.1,113.7,4,124.8s-39.9,15.2-39.9,15.2l-0.4-82.6L495.8,243.9z"/>
<path class="st5" d="M497.3,214.2l13.1,13.1c0,0,12.1,113.7,4,124.8s-39.9,15.2-39.9,15.2l-0.4-82.6L497.3,214.2z"/>
<path class="st1" d="M302,387.3c0,0-29.2-11.1-34.2,10.1s12.1,115.7,12.1,115.7s11.1,71.5,18.1,73.5s38.2,3,43.3-6
	s-15.1-101.7-15.1-101.7l116.8-2c0,0-7,80.5-11.1,87.6s-4,31.2,0,31.2s48.3-2,51.3-8.1s20.1-141.9,20.1-141.9s14.1-47.3-2-44.3
	S302,387.3,302,387.3z"/>
<path class="st3" d="M474.2,583.6c0,0,10.1-7,15.1,0s7,15.1-15.1,27.2s-39.3,9.1-39.3,7v-29.2L474.2,583.6z"/>
<path class="st3" d="M300,580.5c0,0-10.1-7-15.1,0s-7,15.1,15.1,27.2s39.3,9.1,39.3,7v-29.2L300,580.5z"/>
<path class="st3" d="M394.9,44.2c-3.8-0.1-7.6,0.4-11.2,1.6c-2.8,1.1-5.5,2.5-8,4.2l-16.9,10.5c-2.9,1.3-4.8,4.2-4.8,7.4l-2.1,15.8
	c-0.5,4-1,8.3,0.8,11.9c1.5,3,4.3,5.1,6.7,7.5c3.7,3.9,6.3,8.8,7.2,14.1c1.2,6.6,0.4,14.5,5.7,18.8c2.8,2.3,6.7,2.7,10.3,2.9
	c9.9,0.6,19.9,0.2,29.7-1.1c1.6-0.1,3.1-0.5,4.5-1.3c1.8-1,2.9-2.9,3.9-4.7c3.8-6.4,7.7-13.2,7.6-20.7c0-3.7-1-7.6,0.8-10.9
	c0.9-1.4,1.9-2.7,3-3.9c2.2-3.1,2.6-7,3-10.8c1.1-12-0.1-21.1-8.9-29.6C417.9,47.9,406.2,44.2,394.9,44.2z"/>
<polygon class="st3" points="300.9,506.2 267.3,677 284.1,677 316.3,509 "/>
<polygon class="st3" points="408.7,520.2 429.7,716.1 443.7,716.1 431.1,514.6 "/>
<polygon class="st3" points="466.1,514.6 495.5,644.8 509.5,644.8 481.5,511.8 "/>
<polygon class="st3" points="354.1,514.6 349.9,618.2 361.1,618.2 369.5,514.6 "/>
<linearGradient id="SVGID_1_" gradientUnits="userSpaceOnUse" x1="273.2313" y1="267.6513" x2="509.5605" y2="267.6513" gradientTransform="matrix(1 0 0 -1 0 698.8159)">
	<stop  offset="0" style="stop-color:#2193B0"/>
	<stop  offset="0.9986" style="stop-color:#21C6E6"/>
</linearGradient>
<path class="st6" d="M277.1,488c0,0-22.4-149.8,40.6-154s152.6,0,152.6,0s51.8-4.2,36.4,154c0,0,14,46.2-112,42S277.1,488,277.1,488
	z"/>
<linearGradient id="SVGID_2_" gradientUnits="userSpaceOnUse" x1="781.6" y1="161.7029" x2="851" y2="161.7029" gradientTransform="matrix(1 0 0 -1 0 698.8159)">
	<stop  offset="0" style="stop-color:#2193B0"/>
	<stop  offset="0.9986" style="stop-color:#21C6E6"/>
</linearGradient>
<path class="st7" d="M851,549.2c0,26.1-15.5,35.2-34.7,35.2s-34.7-9.1-34.7-35.2s34.7-59.3,34.7-59.3S851,523,851,549.2z"/>
<polygon class="st1" points="815.4,558.5 830.2,531.5 815.5,555.1 815.6,545.3 825.8,525.7 815.7,542.7 816,525 826.9,509.4 
	816,522.2 816.2,489.8 815.1,530.9 804.1,514 815,534.4 813.9,554.1 813.9,553.6 801.1,535.7 813.9,555.4 813.7,557.9 813.7,557.9 
	813.7,558.1 811.1,584.5 814.6,584.5 815,582.3 827.7,562.7 815.1,580.4 "/>
<polygon class="st3" points="838.5,641 797.1,641 786.4,580.7 846.8,580.7 "/>
<rect x="145" y="232.8" class="st1" width="86" height="100.8"/>
<rect x="158.3" y="248.4" class="st0" width="59.3" height="69.5"/>
<g>
	<path class="st8" d="M490.6,100.6l-28.2,9.9l4.4,36.9l23.8,13.1l23.9-13.3l4.4-36.9L490.6,100.6z"/>
	<path class="st9" d="M516.2,112.4l-25.6-8.7v53.7l21.5-11.9L516.2,112.4L516.2,112.4z"/>
	<path class="st10" d="M465.6,112.6l3.8,33l21.1,11.7v-53.7L465.6,112.6L465.6,112.6z"/>
	<path class="st0" d="M497.6,132.3l-7,3.3h-7.4l-3.5,8.8l-6.5,0.1l17.4-38.8L497.6,132.3L497.6,132.3z M496.9,130.6l-6.3-12.5
		l-5.2,12.3h5.2L496.9,130.6L496.9,130.6z"/>
	<path class="st8" d="M490.6,105.7l0,12.5l5.9,12.3h-5.9v5.2h8.2l3.8,8.8l6.2,0.1L490.6,105.7L490.6,105.7z"/>
</g>
<g id="Guides_to_delete">
	<g>
		<polygon class="st11" points="168,306.3 163.6,256.5 212.4,256.5 208,306.3 188,311.9 		"/>
		<polygon class="st12" points="188,260.6 188,307.6 204.1,303.2 208,260.6 		"/>
		<polygon class="st13" points="172.7,266.7 174.3,285.2 195.5,285.2 194.8,293.1 188,294.9 181.2,293.1 180.7,288 174.6,288 
			175.5,297.8 188,301.3 200.5,297.8 202.2,279.1 179.9,279.1 179.4,272.8 202.7,272.8 202.8,272.8 203.3,266.7 		"/>
		<g>
			<polygon class="st14" points="188,266.7 172.7,266.7 174.3,285.2 188,285.2 188,279.1 179.9,279.1 179.4,272.8 188,272.8 			"/>
			<polygon class="st14" points="188,294.9 188,294.9 181.2,293.1 180.7,288 174.6,288 175.5,297.8 188,301.3 188,301.3 			"/>
		</g>
	</g>
</g>
<path class="st0" d="M530.4,130.5c0,4.9,4.8,9.5,12.4,12.1c-1.5,7.6-0.3,13.7,3.9,16.1c4.3,2.5,10.6,0.8,16.6-4.5
	c5.9,5.1,11.8,7,16,4.6c4.3-2.5,5.6-9,4-16.9c7.9-2.6,12.3-6.5,12.3-11.5c0-4.8-4.8-9-12.3-11.5c1.7-8.2,0.3-14.2-4.1-16.7
	c-4.2-2.4-10.2-0.3-16.1,4.9c-6.2-5.5-12.1-7.2-16.5-4.7c-4.2,2.4-5.3,8.7-3.8,16.4C535.5,121.5,530.4,125.8,530.4,130.5z"/>
<path class="st15" d="M581.7,121.6c-0.6-0.2-1.2-0.4-1.9-0.6c0.1-0.4,0.2-0.8,0.3-1.3c1.4-6.8,0.5-12.4-2.7-14.2
	c-3-1.7-8,0.1-12.9,4.4c-0.5,0.4-1,0.9-1.4,1.3c-0.3-0.3-0.6-0.6-1-0.9c-5.2-4.6-10.5-6.6-13.6-4.8c-3,1.7-3.9,6.9-2.6,13.4
	c0.1,0.6,0.3,1.3,0.4,1.9c-0.7,0.2-1.5,0.4-2.1,0.7c-6.1,2.1-10,5.5-10,9c0,3.6,4.2,7.2,10.6,9.4c0.5,0.2,1,0.3,1.6,0.5
	c-0.2,0.7-0.3,1.4-0.5,2.1c-1.2,6.4-0.3,11.4,2.7,13.2c3.1,1.8,8.3,0,13.4-4.5c0.4-0.4,0.8-0.7,1.2-1.1c0.5,0.5,1,1,1.6,1.4
	c4.9,4.2,9.8,5.9,12.8,4.2c3.1-1.8,4.1-7.2,2.8-13.8c-0.1-0.5-0.2-1-0.3-1.5c0.4-0.1,0.7-0.2,1.1-0.3c6.6-2.2,10.9-5.7,10.9-9.4
	C591.9,127.1,587.9,123.7,581.7,121.6L581.7,121.6z"/>
<g>
	<path class="st13" d="M580.2,137.6c-0.3,0.1-0.6,0.2-1,0.3c-0.7-2.3-1.7-4.8-2.9-7.3c1.2-2.5,2.1-4.9,2.8-7.2
		c0.6,0.2,1.2,0.4,1.7,0.5c5.4,1.8,8.6,4.6,8.6,6.7C589.5,132.8,585.9,135.7,580.2,137.6L580.2,137.6z M577.8,142.3
		c0.6,2.9,0.7,5.6,0.3,7.6c-0.3,1.9-1,3.1-1.9,3.6c-1.8,1.1-5.7-0.3-9.9-3.9c-0.5-0.4-1-0.9-1.5-1.3c1.6-1.8,3.3-3.9,4.8-6.2
		c2.8-0.2,5.4-0.7,7.8-1.2C577.7,141.4,577.8,141.9,577.8,142.3L577.8,142.3z M553.8,153.4c-1.8,0.6-3.2,0.6-4.1,0.2
		c-1.8-1.1-2.6-5.1-1.5-10.6c0.1-0.6,0.3-1.3,0.4-1.9c2.4,0.5,5,0.9,7.8,1.1c1.6,2.3,3.3,4.3,5,6.1c-0.4,0.3-0.7,0.7-1.1,1
		C558.1,151.3,555.8,152.7,553.8,153.4L553.8,153.4z M545.5,137.6c-2.8-1-5.1-2.2-6.7-3.6c-1.4-1.2-2.2-2.4-2.2-3.4
		c0-2.1,3.1-4.8,8.4-6.6c0.7-0.2,1.3-0.4,2-0.6c0.7,2.4,1.7,4.8,2.8,7.3c-1.2,2.5-2.1,5-2.9,7.4
		C546.4,137.9,545.9,137.7,545.5,137.6z M548.3,118.5c-1.1-5.6-0.4-9.7,1.5-10.8c1.9-1.1,6.2,0.5,10.7,4.5c0.3,0.3,0.6,0.5,0.9,0.8
		c-1.7,1.8-3.3,3.9-4.9,6.1c-2.7,0.3-5.3,0.7-7.7,1.2C548.5,119.7,548.4,119.1,548.3,118.5L548.3,118.5z M573.2,124.7
		c-0.6-1-1.2-1.9-1.8-2.9c1.8,0.2,3.6,0.5,5.3,0.9c-0.5,1.6-1.1,3.3-1.9,5C574.4,126.7,573.8,125.7,573.2,124.7L573.2,124.7z
		 M563.1,114.8c1.1,1.2,2.3,2.6,3.4,4.1c-2.3-0.1-4.6-0.1-6.8,0C560.7,117.4,561.9,116,563.1,114.8L563.1,114.8z M552.8,124.7
		c-0.6,1-1.1,2-1.6,3c-0.7-1.7-1.3-3.4-1.8-5c1.7-0.4,3.4-0.7,5.2-0.9C554,122.8,553.4,123.7,552.8,124.7z M554.6,139.5
		c-1.9-0.2-3.7-0.5-5.3-0.9c0.5-1.6,1.1-3.4,1.9-5.1c0.5,1,1.1,2,1.6,3C553.4,137.5,554,138.5,554.6,139.5z M563.1,146.5
		c-1.2-1.3-2.3-2.7-3.5-4.2c1.1,0,2.2,0.1,3.4,0.1c1.2,0,2.3,0,3.5-0.1C565.4,143.9,564.3,145.3,563.1,146.5z M574.9,133.4
		c0.8,1.8,1.4,3.5,1.9,5.1c-1.7,0.4-3.5,0.7-5.4,0.9c0.6-1,1.2-2,1.8-2.9C573.8,135.5,574.4,134.5,574.9,133.4L574.9,133.4z
		 M571.1,135.3c-0.9,1.5-1.8,3-2.8,4.5c-1.7,0.1-3.5,0.2-5.3,0.2c-1.8,0-3.6-0.1-5.2-0.2c-1-1.5-1.9-3-2.8-4.5
		c-0.9-1.5-1.7-3.1-2.5-4.7c0.8-1.6,1.6-3.1,2.5-4.7v0c0.9-1.5,1.8-3,2.8-4.5c1.7-0.1,3.5-0.2,5.3-0.2c1.8,0,3.6,0.1,5.3,0.2
		c1,1.5,1.9,2.9,2.8,4.4c0.9,1.5,1.7,3.1,2.5,4.6C572.8,132.2,572,133.7,571.1,135.3L571.1,135.3z M576.2,107.7
		c1.9,1.1,2.7,5.6,1.5,11.5c-0.1,0.4-0.2,0.8-0.3,1.1c-2.4-0.6-5-1-7.7-1.2c-1.6-2.3-3.2-4.3-4.9-6.1c0.4-0.4,0.9-0.8,1.3-1.2
		C570.4,108.1,574.4,106.6,576.2,107.7L576.2,107.7z"/>
</g>
<path class="st15" d="M563,125.4c2.9,0,5.2,2.3,5.2,5.2c0,2.9-2.3,5.2-5.2,5.2c-2.9,0-5.2-2.3-5.2-5.2
	C557.9,127.7,560.2,125.4,563,125.4"/>
<g>
	<path class="st16" d="M540.8,210.4l-15.8,4.3l-15.8-4.3l-3.6-39.5h38.9L540.8,210.4z"/>
	<path class="st17" d="M525,174.1v37.2l0,0l12.8-3.4l3-33.7H525L525,174.1z"/>
	<path class="st13" d="M525,184l-11.3,4.7l0.4,4.7l10.9-4.7l11.6-5l0.5-4.8L525,184L525,184z"/>
	
		<linearGradient id="SVGID_3_" gradientUnits="userSpaceOnUse" x1="-828.9187" y1="-831.3381" x2="-828.9187" y2="-833.357" gradientTransform="matrix(4.6418 0 0 4.6418 4366.9985 4052.2703)">
		<stop  offset="0.387" style="stop-color:#D1D3D4;stop-opacity:0"/>
		<stop  offset="1" style="stop-color:#D1D3D4"/>
	</linearGradient>
	<path class="st18" d="M513.7,188.7l0.4,4.7l10.9-4.7V184L513.7,188.7z"/>
	
		<linearGradient id="SVGID_4_" gradientUnits="userSpaceOnUse" x1="-826.3962" y1="-832.345" x2="-826.3962" y2="-834.4435" gradientTransform="matrix(4.6418 0 0 4.6418 4366.9985 4052.2703)">
		<stop  offset="0.387" style="stop-color:#D1D3D4;stop-opacity:0"/>
		<stop  offset="1" style="stop-color:#D1D3D4"/>
	</linearGradient>
	<path class="st19" d="M537.1,178.9l-12.1,5v4.7l11.6-5L537.1,178.9z"/>
	
		<linearGradient id="SVGID_5_" gradientUnits="userSpaceOnUse" x1="-830.1329" y1="-830.4377" x2="-825.2841" y2="-830.4377" gradientTransform="matrix(4.6418 0 0 4.6418 4366.9985 4052.2703)">
		<stop  offset="0" style="stop-color:#E8E7E5"/>
		<stop  offset="1" style="stop-color:#FFFFFF"/>
	</linearGradient>
	<path class="st20" d="M513.7,188.7l0.4,4.7l16.8,0.1l-0.4,6.2l-5.5,1.6l-5.3-1.3l-0.3-3.9h-4.9l0.6,7.4l10,2.9l9.9-2.9l1.3-14.8
		H513.7z"/>
	<path class="st21" d="M525,188.7h-11.3l0.4,4.7l10.9,0V188.7L525,188.7z M525,201.2L525,201.2l-5.4-1.3l-0.3-3.9h-4.9l0.6,7.4
		l10,2.9V201.2z"/>
	
		<linearGradient id="SVGID_6_" gradientUnits="userSpaceOnUse" x1="-830.356" y1="-833.9298" x2="-825.0917" y2="-833.9298" gradientTransform="matrix(4.6418 0 0 4.6418 4366.9985 4052.2703)">
		<stop  offset="0" style="stop-color:#E8E7E5"/>
		<stop  offset="1" style="stop-color:#FFFFFF"/>
	</linearGradient>
	<path class="st22" d="M512.7,178.9h24.4l-0.5,4.8h-23.4L512.7,178.9L512.7,178.9z"/>
	<path class="st21" d="M525,178.9h-12.3l0.6,4.8H525V178.9L525,178.9z"/>
</g>
<g>
	<path class="st23" d="M652,99.3h47v47h-47V99.3z"/>
	<path class="st24" d="M695.1,135.1c-0.3-2.1-1.7-3.9-5.9-5.6c-1.4-0.7-3-1.1-3.5-2.2c-0.2-0.6-0.2-1-0.1-1.4c0.3-1.2,1.8-1.6,3-1.3
		c0.8,0.3,1.5,0.8,1.9,1.8c2-1.3,2-1.3,3.4-2.2c-0.5-0.8-0.8-1.2-1.1-1.5c-1.2-1.4-2.9-2.1-5.5-2c-0.5,0.1-0.9,0.1-1.4,0.2
		c-1.3,0.3-2.6,1-3.3,2c-2.2,2.5-1.6,6.9,1.1,8.8c2.7,2,6.6,2.5,7.1,4.3c0.5,2.3-1.7,3-3.8,2.8c-1.6-0.3-2.5-1.1-3.4-2.6
		c-1.8,1-1.8,1-3.6,2.1c0.4,0.9,0.9,1.4,1.6,2.2c3.4,3.5,11.9,3.3,13.4-1.9C695,138.1,695.4,136.9,695.1,135.1z M677.5,120.9h-4.4
		c0,3.8,0,7.6,0,11.4c0,2.4,0.1,4.6-0.3,5.3c-0.6,1.3-2.3,1.2-3.1,0.9c-0.8-0.4-1.2-0.9-1.6-1.7c-0.1-0.2-0.2-0.4-0.3-0.4
		c-1.2,0.7-2.4,1.5-3.6,2.2c0.6,1.2,1.5,2.3,2.6,3c1.7,1,3.9,1.3,6.3,0.8c1.5-0.4,2.9-1.4,3.5-2.8c1-1.8,0.8-4.1,0.8-6.5
		C677.5,129,677.5,125,677.5,120.9L677.5,120.9z"/>
</g>
<g>
	<path class="st25" d="M601.9,145.8c0,2.5,2,4.5,4.5,4.5h26.1c2.5,0,4.5-2,4.5-4.5v-26.1c0-2.5-2-4.5-4.5-4.5h-26.1
		c-2.5,0-4.5,2-4.5,4.5V145.8L601.9,145.8z"/>
	<path class="st13" d="M616.4,130.7v-5h4.4c0.4,0,0.8,0,1.2,0.1c0.4,0.1,0.7,0.2,1,0.4c0.3,0.2,0.5,0.4,0.7,0.7
		c0.2,0.3,0.3,0.7,0.3,1.2c0,0.9-0.3,1.5-0.8,1.9c-0.5,0.4-1.2,0.6-2.1,0.6H616.4L616.4,130.7z M611.8,122.1v21.3h10.3
		c1,0,1.9-0.1,2.8-0.4s1.7-0.6,2.4-1.1c0.7-0.5,1.3-1.1,1.7-1.9c0.4-0.8,0.6-1.7,0.6-2.8c0-1.3-0.3-2.5-1-3.4
		c-0.6-0.9-1.6-1.6-2.9-2c1-0.5,1.7-1,2.2-1.8c0.5-0.7,0.7-1.6,0.7-2.7c0-1-0.2-1.8-0.5-2.5c-0.3-0.7-0.8-1.2-1.4-1.6
		c-0.6-0.4-1.3-0.7-2.1-0.9c-0.8-0.2-1.8-0.3-2.8-0.3L611.8,122.1L611.8,122.1z M616.4,139.7v-5.8h5.1c1,0,1.8,0.2,2.4,0.7
		c0.6,0.5,0.9,1.2,0.9,2.3c0,0.6-0.1,1-0.3,1.4s-0.4,0.6-0.8,0.8c-0.3,0.2-0.7,0.4-1.1,0.4c-0.4,0.1-0.9,0.1-1.3,0.1H616.4
		L616.4,139.7z"/>
</g>
<g>
	<path class="st26" d="M695.2,232c-0.1,0-0.2,0.2-0.2,0.3c0,0.7,0,2.5,0,3.8c0,0,0.1,0.1,0.1,0.1c0.3,0,0.9,0,1.4,0
		c0.7,0,1.2-0.1,1.4-0.2c0.6-0.3,0.9-1,0.9-1.7c0-1.7-1.2-2.3-2.9-2.3C695.8,231.9,695.4,231.9,695.2,232L695.2,232z M699.6,239.7
		c0-1.7-1.3-2.6-3.5-2.6c-0.1,0-0.8,0-1,0c-0.1,0-0.1,0.1-0.1,0.1c0,1.2,0,3.2,0,3.9c0,0.3,0.3,0.8,0.6,0.9c0.3,0.2,1,0.2,1.5,0.2
		C698.4,242.2,699.6,241.4,699.6,239.7L699.6,239.7z M691.6,231c0.2,0,0.7,0.1,2,0.1c1.3,0,2.3,0,3.5,0c1.5,0,3.6,0.5,3.6,2.8
		c0,1.1-0.8,2-1.8,2.4c-0.1,0-0.1,0.1,0,0.1c1.4,0.4,2.7,1.3,2.7,2.9c0,1.7-1,2.7-2.5,3.4c-0.9,0.4-2,0.5-3.2,0.5
		c-0.9,0-3.2-0.1-4.5-0.1c-0.1-0.1,0.1-0.7,0.2-0.8c0.3,0,0.6,0,0.9-0.1c0.5-0.1,0.5-0.3,0.6-1c0-0.6,0-2.7,0-4.2c0-2.1,0-3.5,0-4.2
		c0-0.5-0.2-0.7-0.6-0.8c-0.3-0.1-0.8-0.1-1.2-0.2C691.2,231.7,691.5,231.1,691.6,231L691.6,231z M681.7,241.7
		c0.4,0.3,1.2,0.5,1.9,0.5c0.9,0,1.9-0.2,2.8-1c0.9-0.8,1.5-2.1,1.5-4.1c0-1.9-0.7-3.5-2.3-4.5c-0.9-0.5-2-0.8-3.2-0.8
		c-0.4,0-0.7,0-1,0.1c-0.1,0-0.2,0.2-0.2,0.3c0,0.3,0,3,0,4.5c0,1.6,0,3.8,0,4.1C681.3,241.1,681.5,241.5,681.7,241.7L681.7,241.7z
		 M677.8,231c0.3,0,1.6,0.1,2.2,0.1c1.1,0,1.9-0.1,3.9-0.1c1.7,0,3.2,0.5,4.2,1.3c1.3,1.1,1.9,2.6,1.9,4.4c0,2.6-1.2,4.1-2.4,5
		c-1.2,0.9-2.7,1.4-4.9,1.4c-1.2,0-3.2,0-4.9-0.1h0c-0.1-0.2,0.1-0.8,0.3-0.8c0.4-0.1,0.6-0.1,0.8-0.2c0.4-0.1,0.4-0.3,0.5-1
		c0.1-1.2,0-2.6,0-4.2c0-1.2,0-3.4,0-4.1c-0.1-0.6-0.3-0.8-0.8-0.9c-0.3-0.1-0.6-0.1-1.1-0.2C677.4,231.6,677.7,231.1,677.8,231
		L677.8,231z"/>
	<path class="st27" d="M657,242.4c-0.4-0.1-0.7-0.1-1.1-0.3c-0.1,0-0.1-0.2-0.1-0.3c0-0.6,0-2.3,0-3.5c0-0.9-0.2-1.7-0.6-2.3
		c-0.5-0.7-1.1-1-2-1c-0.8,0-1.8,0.5-2.6,1.2c0,0-0.2,0.1-0.1-0.1c0-0.2,0-0.6,0.1-0.8c0-0.2-0.1-0.4-0.1-0.4
		c-0.6,0.3-2.1,0.6-2.7,0.7c-0.4,0.1-0.5,0.5-0.1,0.6h0c0.5,0.1,0.8,0.3,1,0.4c0.2,0.1,0.2,0.3,0.2,0.5c0,1.3,0,3.3,0,4.4
		c0,0.4-0.1,0.6-0.4,0.7l0,0c-0.2,0.1-0.4,0.1-0.7,0.1c-0.1,0.1-0.1,0.7,0,0.8c0.2,0,1.2-0.1,2-0.1c1.1,0,1.7,0.1,2,0.1
		c0.1-0.1,0.2-0.7,0.1-0.8c-0.3,0-0.6-0.1-0.8-0.1c-0.3-0.1-0.4-0.2-0.4-0.6c0-0.9,0-2.8,0-4.1c0-0.4,0.1-0.5,0.2-0.6
		c0.4-0.3,1-0.6,1.6-0.6c0.6,0,0.9,0.2,1.2,0.4c0.4,0.3,0.5,0.8,0.6,1.1c0.1,0.7,0.1,2.2,0.1,3.5c0,0.7-0.1,0.9-0.3,0.9
		c-0.1,0.1-0.4,0.1-0.8,0.2c-0.1,0.1-0.1,0.7,0,0.8c0.5,0,1.1-0.1,1.9-0.1c1.1,0,1.8,0.1,2,0.1C657,243,657.1,242.5,657,242.4
		L657,242.4z M661.8,235.8c-0.9,0-1.5,0.7-1.5,1.8c0,1.1,0.5,2.4,1.9,2.4c0.2,0,0.7-0.1,0.9-0.3c0.3-0.3,0.6-0.9,0.6-1.6
		C663.6,236.7,662.9,235.8,661.8,235.8L661.8,235.8z M661.6,243.4c-0.3,0-0.6,0.1-0.7,0.2c-0.7,0.5-1,0.9-1,1.4
		c0,0.5,0.2,0.9,0.6,1.2c0.5,0.4,1.2,0.6,2.1,0.6c1.8,0,2.5-0.9,2.5-1.9c0-0.7-0.3-1.1-1-1.3C663.6,243.5,662.7,243.4,661.6,243.4
		L661.6,243.4z M661.8,247.9c-1,0-1.8-0.2-2.5-0.7c-0.6-0.5-0.9-1.2-0.9-1.7c0-0.1,0-0.5,0.3-0.9c0.2-0.2,0.6-0.6,1.6-1.3
		c0,0,0.1,0,0.1-0.1c0,0,0-0.1-0.1-0.1c-0.8-0.3-1-0.8-1.1-1.1v0c0-0.1-0.1-0.2,0.1-0.3c0.1-0.1,0.3-0.2,0.5-0.3
		c0.3-0.2,0.6-0.4,0.8-0.5c0,0,0-0.1,0-0.1c0,0,0-0.1-0.1-0.1c-1.2-0.4-1.8-1.3-1.8-2.6c0-0.9,0.4-1.7,1.1-2.2
		c0.5-0.4,1.7-0.8,2.5-0.8h0.1c0.8,0,1.3,0.2,1.9,0.4c0.3,0.1,0.7,0.2,1.1,0.2c0.7,0,1-0.2,1.2-0.4c0,0,0.1,0.1,0.1,0.3
		c0,0.2-0.1,0.6-0.2,0.8c-0.1,0.2-0.4,0.3-0.8,0.3h-0.1c-0.3,0-0.4-0.1-0.4-0.1l-0.1,0c0,0,0,0.1,0,0.1l0,0c0,0.2,0.1,0.6,0.1,0.7
		c0,1.4-0.6,2-1.2,2.5c-0.6,0.4-1.3,0.7-2,0.8c0,0-0.1,0-0.2,0c-0.1,0-0.2,0-0.2,0h0c-0.1,0-0.5,0.2-0.5,0.5c0,0.3,0.2,0.6,0.9,0.6
		c0.2,0,0.3,0,0.5,0c1,0.1,2.2,0.2,2.8,0.3c0.8,0.3,1.3,1,1.3,1.8c0,1.3-0.9,2.5-2.4,3.2C663.3,247.7,662.6,247.9,661.8,247.9
		L661.8,247.9z M671.6,235.9c-0.4,0-0.7,0.1-0.9,0.3c-0.7,0.4-1,1.2-1,2.4c0,2.3,1.1,3.8,2.8,3.8c0.5,0,0.9-0.1,1.2-0.4
		c0.5-0.4,0.8-1.2,0.8-2.4C674.3,237.4,673.2,235.9,671.6,235.9L671.6,235.9z M671.9,243.3c-2.9,0-4-2.2-4-4.2
		c0-1.4,0.6-2.5,1.7-3.3c0.8-0.5,1.8-0.8,2.6-0.8c2.2,0,3.8,1.6,3.8,3.9c0,1.6-0.6,2.8-1.8,3.6C673.7,242.9,672.7,243.3,671.9,243.3
		L671.9,243.3L671.9,243.3z M641.2,235.9c-0.4,0-0.7,0.1-0.9,0.3c-0.7,0.4-1,1.2-1,2.4c0,2.3,1.1,3.8,2.8,3.8c0.5,0,0.9-0.1,1.2-0.4
		c0.5-0.4,0.8-1.2,0.8-2.4C644,237.4,642.9,235.9,641.2,235.9L641.2,235.9z M641.5,243.3c-2.9,0-4-2.2-4-4.2c0-1.4,0.6-2.5,1.7-3.3
		c0.8-0.5,1.8-0.8,2.6-0.8c2.2,0,3.8,1.6,3.8,3.9c0,1.6-0.6,2.8-1.8,3.6C643.3,242.9,642.3,243.3,641.5,243.3L641.5,243.3z
		 M621.9,243.1c0-0.1-0.1-0.2-0.1-0.4c0-0.1,0-0.2,0.1-0.3c0.4-0.1,0.6-0.1,0.8-0.2c0.3-0.1,0.5-0.3,0.5-0.7c0.1-1,0.1-3,0-4.4v0
		c0-0.2,0-0.3-0.2-0.5c-0.3-0.2-0.6-0.3-1-0.4c-0.2-0.1-0.3-0.1-0.2-0.2c0-0.1,0.1-0.2,0.3-0.3c0.6-0.1,2-0.4,2.6-0.7
		c0,0,0.1,0.1,0.1,0.3l0,0.2c0,0.2,0,0.4,0,0.6c0,0.1,0.1,0.1,0.1,0.1c0,0,0.1,0,0.1,0c1.1-0.9,2.1-1.2,2.6-1.2c0.8,0,1.5,0.4,2,1.2
		c0,0.1,0.1,0.1,0.1,0.1c0,0,0.1,0,0.1-0.1c1-0.8,2-1.2,2.7-1.2c1.6,0,2.5,1.2,2.5,3.2c0,0.6,0,1.3,0,2c0,0.6,0,1.2,0,1.5
		c0,0.1,0.1,0.4,0.3,0.4c0.2,0.1,0.6,0.2,1,0.2h0c0,0.1,0,0.6-0.1,0.7c-0.1,0-0.3,0-0.4,0c-0.4,0-0.9,0-1.3,0c-1.1,0-1.6,0-2.2,0.1
		c0-0.1-0.1-0.6,0-0.7c0.3-0.1,0.5-0.1,0.7-0.2c0.3-0.1,0.4-0.3,0.4-0.7c0-0.3,0.1-3.1,0-3.8c-0.1-0.7-0.6-1.5-1.8-1.5
		c-0.4,0-1.1,0.2-1.8,0.7c0,0-0.1,0.1-0.1,0.2v0c0.1,0.4,0.1,0.8,0.1,1.4v1.1c0,0.8,0,1.5,0,2c0,0.4,0.2,0.5,0.4,0.5
		c0.1,0,0.2,0,0.3,0.1c0.2,0,0.3,0.1,0.6,0.1c0,0.1,0,0.3,0,0.5c0,0.1-0.1,0.2-0.1,0.2c-0.6,0-1.2,0-2.1,0c-0.3,0-0.7,0-1.1,0
		c-0.3,0-0.6,0-0.8,0c0,0-0.1-0.2-0.1-0.3c0-0.2,0-0.3,0.1-0.3c0.1,0,0.2,0,0.2,0c0.2,0,0.4-0.1,0.6-0.1c0.3-0.1,0.4-0.2,0.4-0.6
		c0.1-0.9,0.1-3.3,0-3.9c-0.2-1-0.8-1.5-1.7-1.5c-0.5,0-1.2,0.3-1.8,0.7c-0.1,0.1-0.2,0.2-0.2,0.4v1c0,1.2,0,2.8,0,3.5
		c0,0.2,0.1,0.4,0.5,0.5c0.1,0,0.2,0.1,0.4,0.1l0.3,0.1c0,0.1,0,0.5-0.1,0.7c-0.2,0-0.4,0-0.6,0c-0.4,0-0.8,0-1.3,0
		c-0.6,0-1,0-1.4,0C622.3,243.1,622.1,243.1,621.9,243.1L621.9,243.1z"/>
	<path class="st28" d="M612.8,247.2l-0.7-0.2c0,0,0.1-3.6-1.2-3.9c-0.9-1,0.1-42.3,3.2-0.1c0,0-1.1,0.5-1.3,1.4
		C612.7,245.3,612.8,247.2,612.8,247.2L612.8,247.2z"/>
	<path class="st29" d="M612.8,247.2l-0.7-0.2c0,0,0.1-3.6-1.2-3.9c-0.9-1,0.1-42.3,3.2-0.1c0,0-1.1,0.5-1.3,1.4
		C612.7,245.3,612.8,247.2,612.8,247.2L612.8,247.2z"/>
	<path class="st28" d="M613.2,243.7c0,0,6.2-4.1,4.7-12.5c-1.4-6.1-4.7-8.2-5-8.9c-0.4-0.6-0.8-1.5-0.8-1.5l0.3,17.1
		C612.4,237.9,611.8,243.1,613.2,243.7"/>
	<path class="st30" d="M613.2,243.7c0,0,6.2-4.1,4.7-12.5c-1.4-6.1-4.7-8.2-5-8.9c-0.4-0.6-0.8-1.5-0.8-1.5l0.3,17.1
		C612.4,237.9,611.8,243.1,613.2,243.7"/>
	<path class="st28" d="M611.7,244c0,0-5.8-4-5.5-10.9c0.3-7,4.4-10.4,5.2-11c0.5-0.6,0.5-0.8,0.6-1.3c0.4,0.8,0.3,11.6,0.3,12.9
		C612.6,238.5,612.1,243,611.7,244z"/>
	<path class="st31" d="M611.7,244c0,0-5.8-4-5.5-10.9c0.3-7,4.4-10.4,5.2-11c0.5-0.6,0.5-0.8,0.6-1.3c0.4,0.8,0.3,11.6,0.3,12.9
		C612.6,238.5,612.1,243,611.7,244z"/>
</g>
<g>
	<path class="st32" d="M585.4,233.4l0.7-12.2l2-3.4c0,0-4.6,1.9-12.3,1.9c-7.7,0-12.2-1.8-12.2-1.8l2.3,3.8l0.8,11.8
		c0,1.3,4.2,2.3,9.3,2.3C581.2,235.6,585.4,234.6,585.4,233.4 M583.1,176.6l1.5-6.1l8.5-8.9l-2.2-1.9l-9,9.5l-1.8,7.2
		c-1.3,0-2.7-0.1-4-0.1c-9.5,0-17.1,1.1-17.1,2.4c0,1.3,7.7,2.4,17.1,2.4c9.5,0,17.1-1.1,17.1-2.4
		C593.2,177.8,589.1,176.9,583.1,176.6"/>
	<path class="st13" d="M582.2,179.9c0,0-0.3,0.1-1.3,0.1c-1,0-1.7,0-1.9-0.3c-0.1-0.1-0.1-0.2-0.1-0.3c0-0.2,0.1-0.3,0.3-0.3
		l0.1,0.2c-0.1,0-0.1,0-0.1,0.1c0,0.1,1,0.2,1.8,0.2c0.8,0,1.7-0.1,1.7-0.2c0,0-0.1-0.1-0.2-0.1l0.1-0.2c0.2,0.1,0.4,0.2,0.4,0.4
		C582.9,179.9,582.5,179.9,582.2,179.9"/>
	<path class="st32" d="M593.1,161.6c0.2-0.2-0.1-0.9-0.7-1.4c-0.6-0.5-1.3-0.8-1.5-0.5c-0.2,0.2,0.1,0.9,0.7,1.4
		C592.2,161.6,592.9,161.8,593.1,161.6 M585,203.6c-0.2-1.9,4.2-4.7,3.1-4.8c-2.4,0.1-3.7,2.9-4.9,5.7c-0.5,1-2,5.5-3,5
		c-1-0.5,1.3-4.2,2-6.4c-0.8,0.6-3.5,2.7-4.2,0.7c-1.1,1-3.6,1.5-3.3-1.1c-0.6,1.1-2,2.6-3.6,2c-2.2-0.8,1.2-7.7,2.1-7.3
		c0.8,0.3-0.2,1.9-0.4,2.5c-0.6,1.3-1.3,3-0.8,3.4c0.8,0.6,2.9-2.2,2.9-2.3c0.4-0.5,1.5-3.9,2.4-3.5c0.9,0.4-2.3,4.9-1.1,5.8
		c0.2,0.2,1.2-0.1,1.8-0.8c0.4-0.4,0.3-1.3,1.5-4.4c1.3-3,2.4-6.8,3.3-6.6c0.9,0.3,0.2,2.2-0.2,3c-1.5,3.4-4,9-2.8,8.6
		c1.2-0.4,1.8-0.5,3-1.8c1.2-1.4,1.1-3.7,1.9-3.6c0.8,0,0.7,0.8,0.5,1.3c0.8-0.9,3.7-2.7,4.4-0.9c0.8,2.2-4.1,5.3-2.9,5.2
		c1.2-0.2,3.2-1.4,4-2.5l2.3-20.7c0,0-2.3,1.9-17,1.9c-14.7,0-16.8-1.9-16.8-1.9l2,18.9c1-3,3.5-8.9,7.4-8.7
		c1.8,0.1,4.1,3.5,2.1,3.6c-0.9,0-0.9-1.7-2-2c-0.7-0.2-1.7,0.4-2.4,1.1c-1.3,1.3-4.1,6.4-3.8,8.9c0.5,3.2,4.4-1.1,5.1-2.4
		c0.5-0.9,0.8-3.6,1.8-3.3c1,0.3-0.1,3.1-0.8,5.5c-0.8,2.8-1.3,5.7-2.3,5.3c-1.1-0.3,0.7-3.9,0.6-4.5c-1,0.9-2.8,3.2-5.2,2.1
		l1.2,11.7c0,0,3.2,2.6,13,2.6c9.7,0,13.1-2.5,13.1-2.5l1.5-13.6C589.2,203.9,585.2,206.1,585,203.6"/>
</g>
<g>
	<path class="st13" d="M676.5,161.8L698,174v24.4l-21.5,12.2L655,198.3V174L676.5,161.8z"/>
	<path class="st33" d="M694.2,197.5l-17,9.6v-7.5l10.6-5.8L694.2,197.5z M695.3,196.4v-20.1l-6.2,3.6v12.9L695.3,196.4L695.3,196.4z
		 M658.7,197.5l17,9.6v-7.5l-10.6-5.8L658.7,197.5L658.7,197.5z M657.6,196.4v-20.1l6.2,3.6v12.9L657.6,196.4L657.6,196.4z
		 M658.3,175.1l17.4-9.8v7.2l-11.1,6.1l-0.1,0L658.3,175.1z M694.6,175.1l-17.4-9.8v7.2l11.1,6.1l0.1,0L694.6,175.1z"/>
	<path class="st34" d="M675.7,197.9l-10.4-5.7v-11.4l10.4,6V197.9 M677.2,197.9l10.4-5.7v-11.4l-10.4,6V197.9 M666,179.5l10.5-5.8
		l10.5,5.8l-10.5,6L666,179.5"/>
</g>
<g>
	
		<radialGradient id="SVGID_7_" cx="-49.8527" cy="441.5994" r="1.183315e-02" gradientTransform="matrix(2291.6716 0 0 -2218.7549 114866.1016 979979.25)" gradientUnits="userSpaceOnUse">
		<stop  offset="0" style="stop-color:#34364E;stop-opacity:0.98"/>
		<stop  offset="1" style="stop-color:#0C0824"/>
	</radialGradient>
	<path class="st35" d="M608.3,170.8h35.7v34.7h-35.7V170.8z"/>
	<path class="st36" d="M608.3,170.8h35.7v34.7h-35.7V170.8z M606.6,207.1h38.9v-38h-38.9V207.1z M632.9,184.7
		c-1.3,0-1.7,0.6-1.7,1.2c0,0.6,0.3,1,2,1.9c2.5,1.2,3.3,2.4,3.3,4.2c0,2.6-2,4-4.7,4c-1.4,0-2.6-0.3-3.3-0.7
		c-0.1,0-0.1-0.1-0.1-0.3v-2.4c0-0.2,0.1-0.2,0.2-0.1c1,0.7,2.2,1,3.3,1c1.3,0,1.8-0.5,1.8-1.3c0-0.6-0.4-1.1-2-1.9
		c-2.3-1.1-3.3-2.2-3.3-4.1c0-2.1,1.6-3.8,4.5-3.8c1.4,0,2.4,0.2,2.9,0.5c0.1,0.1,0.2,0.2,0.2,0.3v2.2c0,0.1-0.1,0.2-0.2,0.2
		C635,185,633.9,184.7,632.9,184.7L632.9,184.7z M618.9,186.6c0.4,0,0.7,0,1.3,0c1.9,0,3.7-0.7,3.7-3.2c0-2.1-1.3-3.1-3.4-3.1
		c-0.6,0-1.3,0-1.6,0V186.6z M616,178c0-0.1,0.2-0.2,0.4-0.2c1,0,2.6-0.1,4.2-0.1c4.5,0,6.2,2.5,6.2,5.6c0,4.1-3,5.9-6.6,5.9
		c-0.6,0-0.8,0-1.3,0v6.2c0,0.1,0,0.2-0.2,0.2h-2.5c-0.1,0-0.2,0-0.2-0.2L616,178L616,178z"/>
</g>
</svg>
