<?xml version="1.0" encoding="utf-8"?>
<!-- Generator: Adobe Illustrator 23.0.6, SVG Export Plug-In . SVG Version: 6.00 Build 0)  -->
<svg version="1.1" id="Layer_1" xmlns="http://www.w3.org/2000/svg" xmlns:xlink="http://www.w3.org/1999/xlink" x="0px" y="0px"
	 viewBox="0 0 655 574.8" style="enable-background:new 0 0 655 574.8;" xml:space="preserve">
<style type="text/css">
	.st0{fill:url(#SVGID_1_);}
	.st1{fill:url(#SVGID_2_);}
	.st2{fill:#C5EAFB;}
</style>
<linearGradient id="SVGID_1_" gradientUnits="userSpaceOnUse" x1="17.2753" y1="276.9367" x2="255.2484" y2="276.9367">
	<stop  offset="0" style="stop-color:#2193B0"/>
	<stop  offset="0.9986" style="stop-color:#21C6E6"/>
</linearGradient>
<path class="st0" d="M219.8,62.4c47.3,0,47.3,60.1,0,60.1c-18.6,0-37.2,5.6-37.2,23.5V231c0,12-8.4,22.4-20.6,27.2l-38.2,18.7
	l41,20.1c11.3,5.6,17.7,15.6,17.7,25.8l0.1,85.1c0,17.9,18.6,23.5,37.2,23.5c47.3,0,47.3,60.1,0,60.1c-58.9,0-109.1-32-109.1-83.6
	v-68L35.4,303c-23.7-11.2-24.5-40.1-0.5-51.9l75.8-37.2v-68C110.7,94.3,160.9,62.4,219.8,62.4z"/>
<linearGradient id="SVGID_2_" gradientUnits="userSpaceOnUse" x1="-30.2181" y1="276.9367" x2="207.755" y2="276.9367" gradientTransform="matrix(-1 0 0 1 611.1388 0)">
	<stop  offset="5.022321e-03" style="stop-color:#FDC84B"/>
	<stop  offset="0.9838" style="stop-color:#FDE74B"/>
</linearGradient>
<path class="st1" d="M547.9,146v68l75.8,37.2c24,11.8,23.2,40.7-0.5,51.9l-75.3,36.9v68c0,51.6-50.2,83.6-109.1,83.6
	c-47.3,0-47.3-60.1,0-60.1c18.6,0,37.2-5.6,37.2-23.5l0.1-85.1c0-10.3,6.3-20.3,17.7-25.8l41-20.1l-38.2-18.7
	C484.4,253.4,476,243,476,231V146c0-17.9-18.6-23.5-37.2-23.5c-47.3,0-47.3-60.1,0-60.1C497.7,62.4,547.9,94.3,547.9,146z"/>
<g>
	<path class="st2" d="M332,14c-10.3-0.1-20.5,2.6-29.5,7.7c-18.2,10.4-29.6,29.9-29.8,50.9l-2.1,394.1c0,1.4,0.3,2.7,0.8,4.1
		c0.1,0.4,0.3,0.7,0.5,1.1c0.2,0.3,0.2,0.7,0.4,1l46.7,77.5c2.1,3.5,5.9,5.7,10,5.7c2.1,0,4.1-0.5,5.9-1.5c1.7-1,3.1-2.3,4.2-4
		l47.5-77c0,0,0-0.1,0-0.1c0.5-0.8,0.9-1.7,1.2-2.7c0-0.1,0.1-0.1,0.1-0.2c0.3-1,0.5-2.1,0.5-3.2l1.9-355.4c0,0,0,0,0,0c0,0,0,0,0,0
		l0.2-38.6C390.8,40.7,364.5,14.2,332,14z M365.1,455.4l-70.7-0.4l1.7-331.9l70.7,0.4L365.1,455.4z M303.5,478.6l52.3,0.3
		l-26.4,42.7L303.5,478.6z M367.1,73.1l-0.1,26.8l-70.7-0.4l0.1-26.8c0.1-12.6,6.9-24.3,17.9-30.6c5.3-3,11.5-4.6,17.7-4.6
		c9.4,0,18.3,3.8,24.9,10.5S367.1,63.6,367.1,73.1z"/>
</g>
</svg>
